<svg xmlns="http://www.w3.org/2000/svg" version="1.1" xmlns:xlink="http://www.w3.org/1999/xlink" xmlns:svgjs="http://svgjs.com/svgjs" width="1440" height="800" preserveAspectRatio="none" viewBox="0 0 1440 800"><g mask="url(&quot;#SvgjsMask1049&quot;)" fill="none"><rect width="1440" height="800" x="0" y="0" fill="rgba(13, 55, 81, 1)"></rect><path d="M0,402.377C73.643,394.362,126.02,329.794,178.074,277.088C221.031,233.593,242.156,177.334,273.872,125.073C310.637,64.493,372.726,16.015,379.331,-54.54C386.48,-130.904,358.745,-209.444,310.792,-269.303C261.981,-330.232,191.236,-379.625,113.462,-386.416C39.299,-392.892,-18.603,-327.464,-89.334,-304.243C-156.964,-282.04,-239.12,-300.61,-292.235,-253.223C-346.755,-204.582,-374.586,-126.243,-370.621,-53.287C-366.872,15.706,-299.85,60.981,-271.73,124.095C-243.23,188.063,-253.783,268.661,-204.858,318.766C-152.266,372.627,-74.837,410.522,0,402.377" fill="#09273a"></path><path d="M1440 1342.02C1540.333 1341.422 1617.719 1261.938 1704.451 1211.493 1795.72 1158.41 1899.249 1123.2939999999999 1962.027 1038.402 2032.662 942.885 2083.052 827.108 2076.415 708.497 2069.534 585.5260000000001 2008.9569999999999 469.869 1925.162 379.605 1842.96 291.057 1733.143 225.30100000000004 1613.336 209.66999999999996 1501.096 195.02599999999995 1401.878 268.60400000000004 1292.316 297.036 1178.114 326.672 1033.66 291.793 955.683 380.337 877.749 468.832 929.31 607.487 915.756 724.625 902.674 837.681 824.411 956.2090000000001 877.394 1056.934 930.534 1157.958 1071.695 1163.059 1173.517 1214.655 1263.153 1260.076 1339.515 1342.618 1440 1342.02" fill="#114769"></path></g><defs><mask id="SvgjsMask1049"><rect width="1440" height="800" fill="#ffffff"></rect></mask></defs></svg>