<svg xmlns="http://www.w3.org/2000/svg" version="1.1" xmlns:xlink="http://www.w3.org/1999/xlink" xmlns:svgjs="http://svgjs.com/svgjs" width="1440" height="1000" preserveAspectRatio="none" viewBox="0 0 1440 1000"><g mask="url(&quot;#SvgjsMask1071&quot;)" fill="none"><rect width="1440" height="1000" x="0" y="0" fill="#0e2a47"></rect><path d="M0,684.666C125.152,667.451,190.204,529.61,295.563,459.905C398.963,391.495,559.878,391.983,612.247,279.604C664.58,167.302,567.868,43.465,546.498,-78.575C525.962,-195.855,570.976,-337.365,489.08,-423.79C407.026,-510.381,258.715,-458.722,146.894,-500.277C22.46,-546.518,-67.106,-688.23,-199.58,-679.707C-334.126,-671.051,-441.523,-560.926,-527.294,-456.903C-611.731,-354.498,-676.592,-230.39,-679.474,-97.694C-682.22,28.709,-599.587,134.935,-542.6,247.797C-487.999,355.933,-447.245,473.134,-352.888,549.104C-252.708,629.763,-127.415,702.193,0,684.666" fill="#0b2037"></path><path d="M1440 1375.781C1513.595 1370.067 1586.324 1363.5430000000001 1652.078 1330 1722.792 1293.926 1792.908 1248.372 1828.679 1177.504 1865.0149999999999 1105.516 1860.335 1021.031 1848.277 941.299 1836.286 862.011 1808.062 786.919 1759.914 722.793 1709.274 655.348 1648.967 587.45 1567.1680000000001 566.905 1486.298 546.5930000000001 1406.311 589.336 1326.652 613.9739999999999 1248.194 638.24 1158.468 647.387 1105.109 709.816 1051.839 772.14 1034.039 862.018 1045.222 943.24 1055.328 1016.638 1136.154 1057.482 1162.513 1126.724 1191.783 1203.612 1144.422 1309.7060000000001 1205.648 1364.659 1265.052 1417.976 1360.417 1381.959 1440 1375.781" fill="#113457"></path></g><defs><mask id="SvgjsMask1071"><rect width="1440" height="1000" fill="#ffffff"></rect></mask></defs></svg>