<svg xmlns="http://www.w3.org/2000/svg" version="1.1" xmlns:xlink="http://www.w3.org/1999/xlink" xmlns:svgjs="http://svgjs.com/svgjs" width="1440" height="800" preserveAspectRatio="none" viewBox="0 0 1440 800"><g mask="url(&quot;#SvgjsMask1061&quot;)" fill="none"><rect width="1440" height="800" x="0" y="0" fill="rgba(21, 67, 96, 1)"></rect><path d="M0,577.256C105.815,558.427,190.204,492.011,289,449.694C412.128,396.955,595.939,419.409,652.257,297.876C708.482,176.542,587.695,45.364,532.89,-76.618C491.908,-167.832,421.244,-235.664,373.151,-323.337C307.917,-442.258,316.907,-613.127,200.447,-682.659C84.937,-751.623,-70.826,-715.292,-194.444,-662.215C-311.437,-611.983,-380.59,-498.139,-460.385,-398.925C-537.195,-303.424,-619.009,-211.818,-651.69,-93.699C-687.258,34.858,-706.691,176.117,-653.303,298.354C-599.613,421.281,-487.003,513.159,-363.635,565.826C-249.797,614.425,-121.864,598.941,0,577.256" fill="#0f3044"></path><path d="M1440 1409.019C1556.0430000000001 1406.536 1667.855 1369.238 1765.276 1306.1390000000001 1862.461 1243.193 1930.856 1150.5059999999999 1991.461 1051.844 2059.374 941.285 2139.477 829.4110000000001 2137.813 699.67 2136.064 563.277 2087.565 416.811 1982.2060000000001 330.176 1879.798 245.96799999999996 1731.715 266.105 1599.445 256.98 1493.381 249.663 1390.044 252.50300000000004 1287.984 282.28099999999995 1185.778 312.102 1096.777 365.031 1011.347 428.57 904.896 507.743 732.258 565.182 729.285 697.815 726.19 835.887 927.042 883.443 998.5029999999999 1001.625 1057.682 1099.495 1021.5989999999999 1242.693 1105.653 1320.254 1192.148 1400.068 1322.334 1411.537 1440 1409.019" fill="#1b567c"></path></g><defs><mask id="SvgjsMask1061"><rect width="1440" height="800" fill="#ffffff"></rect></mask></defs></svg>