<svg xmlns="http://www.w3.org/2000/svg" version="1.1" xmlns:xlink="http://www.w3.org/1999/xlink" xmlns:svgjs="http://svgjs.com/svgjs" width="1440" height="800" preserveAspectRatio="none" viewBox="0 0 1440 800"><g mask="url(&quot;#SvgjsMask1051&quot;)" fill="none"><rect width="1440" height="800" x="0" y="0" fill="rgba(13, 55, 81, 1)"></rect><path d="M0,472.438C89.935,466.584,101.174,324.131,176.902,275.265C252.391,226.553,388.969,276.359,428.722,195.791C468.011,116.162,361.16,36.934,336.599,-48.396C316.519,-118.156,344.016,-202.076,298.033,-258.247C251.867,-314.641,165.731,-308.231,99.318,-338.247C18.965,-374.564,-45.558,-464.177,-133.035,-453.075C-220.077,-442.028,-289.147,-362.808,-327.801,-284.041C-363.227,-211.853,-323.397,-127.683,-331.955,-47.728C-340.074,28.122,-405.085,101.223,-376.614,171.994C-348.175,242.687,-251.916,251.781,-192.349,299.3C-123.52,354.209,-87.862,478.157,0,472.438" fill="#09273a"></path><path d="M1440 1426.636C1555.108 1414.5430000000001 1623.948 1296.724 1708.275 1217.445 1777.374 1152.482 1838.771 1085.562 1888.615 1004.875 1945.011 913.581 2029.3609999999999 823.621 2017.433 716.978 2005.475 610.062 1893.016 549.501 1828.089 463.719 1757.445 370.382 1725.434 239.15300000000002 1618.962 190.51 1509.567 140.53200000000004 1380.978 172.101 1265.835 206.84699999999998 1151.321 241.40300000000002 1046.7559999999999 301.133 964.524 387.998 879.77 477.527 790.654 583.627 792.455 706.897 794.223 827.898 911.686 909.03 973.655 1012.973 1027.505 1103.298 1054.205 1208.115 1132.874 1277.897 1219.728 1354.9389999999999 1324.535 1438.767 1440 1426.636" fill="#114769"></path></g><defs><mask id="SvgjsMask1051"><rect width="1440" height="800" fill="#ffffff"></rect></mask></defs></svg>