<svg xmlns="http://www.w3.org/2000/svg" version="1.1" xmlns:xlink="http://www.w3.org/1999/xlink" xmlns:svgjs="http://svgjs.com/svgjs" width="1440" height="800" preserveAspectRatio="none" viewBox="0 0 1440 800"><g mask="url(&quot;#SvgjsMask1050&quot;)" fill="none"><rect width="1440" height="800" x="0" y="0" fill="rgba(13, 55, 81, 1)"></rect><path d="M0,680.728C123.845,648.323,163.746,491.184,267.283,415.9C361.892,347.108,510.962,360.476,575.035,262.61C640.048,163.309,621.383,30.225,595.644,-85.641C571.135,-195.97,515.851,-298.267,433.294,-375.451C355.519,-448.165,247.32,-465.699,148.025,-504.128C38.407,-546.552,-62.624,-620.241,-179.928,-612.778C-310.083,-604.498,-438.278,-551.693,-531.876,-460.873C-629.435,-366.21,-686.316,-236.008,-706.729,-101.612C-727.24,33.43,-706.173,172.374,-646.736,295.355C-588.075,416.73,-491.153,515.045,-375.347,584.051C-262.064,651.554,-127.575,714.109,0,680.728" fill="#09273a"></path><path d="M1440 1415.749C1560.5720000000001 1430.3980000000001 1689.262 1412.4470000000001 1789.76 1344.238 1889.301 1276.6779999999999 1953.4270000000001 1164.451 1982.319 1047.669 2008.6599999999999 941.197 1945.532 837.418 1942.272 727.784 1938.4279999999999 598.498 2036.284 453.647 1961.518 348.102 1888.141 244.51700000000005 1727.955 264.81399999999996 1602.176 247.67899999999997 1493.554 232.88099999999997 1385.655 225.84299999999996 1280.052 255.26599999999996 1173.367 284.99 1064.841 328.613 997.135 416.255 930.836 502.076 922.968 616.547 917.289 724.845 912.02 825.333 927.188 923.643 965.653 1016.627 1005.229 1112.297 1061.681 1198.749 1140.902 1265.406 1228.05 1338.733 1326.938 1402.013 1440 1415.749" fill="#114769"></path></g><defs><mask id="SvgjsMask1050"><rect width="1440" height="800" fill="#ffffff"></rect></mask></defs></svg>