<svg xmlns="http://www.w3.org/2000/svg" version="1.1" xmlns:xlink="http://www.w3.org/1999/xlink" xmlns:svgjs="http://svgjs.com/svgjs" width="1440" height="800" preserveAspectRatio="none" viewBox="0 0 1440 800"><g mask="url(&quot;#SvgjsMask1055&quot;)" fill="none"><rect width="1440" height="800" x="0" y="0" fill="rgba(13, 55, 81, 1)"></rect><path d="M0,641.061C118.386,658.582,227.821,575.379,324.048,504.228C415.694,436.465,509.607,355.655,535.964,244.767C561.147,138.817,498.599,35.6,459.604,-66.081C428.457,-147.298,378.332,-214.02,331.827,-287.53C275.97,-375.823,254.383,-498.81,158.949,-541.33C63.018,-584.071,-49.328,-539.302,-147.078,-500.901C-238.722,-464.899,-309.192,-397.644,-380.265,-329.502C-458.389,-254.6,-568.644,-191.086,-582.212,-83.71C-595.776,23.632,-505.309,112.868,-447.737,204.475C-397.369,284.62,-335.532,350.559,-267.76,416.643C-182.657,499.626,-117.583,623.659,0,641.061" fill="#09273a"></path><path d="M1440 1318.516C1544.219 1330.298 1647.069 1311.9560000000001 1745.17 1274.854 1862.6779999999999 1230.412 1995.452 1190.768 2061.06 1083.629 2128.3940000000002 973.671 2129.2380000000003 829.925 2093.489 706.043 2059.788 589.258 1955.9679999999998 513.492 1871.3519999999999 426.231 1791.661 344.05 1724.497 236.808 1613.063 210.60199999999998 1502.958 184.70799999999997 1398.676 257.78700000000003 1290.115 289.54 1181.4180000000001 321.333 1062.614 325.268 975.1320000000001 397.189 879.751 475.603 786.372 582.221 783.944 705.673 781.537 828.084 887.81 921.187 962.9259999999999 1017.8720000000001 1022.912 1095.083 1093.451 1158.397 1176.171 1210.526 1258.226 1262.2359999999999 1343.625 1307.62 1440 1318.516" fill="#114769"></path></g><defs><mask id="SvgjsMask1055"><rect width="1440" height="800" fill="#ffffff"></rect></mask></defs></svg>